<?xml version="1.0" encoding="utf-8"?>
<!-- Generator: Adobe Illustrator 25.4.1, SVG Export Plug-In . SVG Version: 6.00 Build 0)  -->
<svg version="1.1" id="Layer_1" xmlns="http://www.w3.org/2000/svg" xmlns:xlink="http://www.w3.org/1999/xlink" x="0px" y="0px"
	 viewBox="0 0 631 592" style="enable-background:new 0 0 631 592;" xml:space="preserve">
<style type="text/css">
	.st0{fill:#7DC7A6;}
	.st1{fill:none;}
	.st2{fill:#30618C;}
	.st3{font-family:'Impact';}
	.st4{font-size:150px;}
	.st5{font-family:'HoeflerText-Regular';}
</style>
<path id="Shape_4" class="st0" d="M612.3,331.8l4.5-5c16.4-18.4,16.4-45.1,0-63.5l-4.5-5l2.9-5.9c10.7-21.7,3.3-47.5-17.5-61.3
	l-5.7-3.8l1.2-6.4c4.3-23.6-9.9-46.7-33.9-55l-6.5-2.3L552,117c-2.3-23.8-22.5-42.7-47.9-44.9l-7-0.6l-2.4-6.1
	c-7.8-19.8-27.8-32.5-49.7-32.5c-3,0-6,0.2-9,0.7l-6.9,1.1l-4-5.3c-10.2-13.5-26.5-21-43.3-21c-7.5,0-15,1.5-22.2,4.6l-6.3,2.7
	l-5.4-4.2C338.1,3.8,326,0,314,0s-24.1,3.8-33.9,11.5l-5.4,4.2l-6.3-2.7c-7.1-3.1-14.7-4.6-22.2-4.6c-16.8,0-33.1,7.5-43.3,21
	l-4,5.3l-6.9-1.1c-3-0.5-6.1-0.7-9.1-0.7c-21.9,0-41.9,12.7-49.7,32.5l-2.4,6.1l-6.9,0.6C98.5,74.2,78.3,93.1,76,117l-0.6,6.5
	l-6.6,2.3c-24,8.3-38.3,31.4-33.9,55l1.2,6.4l-5.7,3.8c-20.9,13.8-28.3,39.6-17.5,61.3l2.9,5.9l-4.5,5c-16.4,18.4-16.4,45.1,0,63.5
	l4.5,5l-2.9,5.9C2.1,359.4,9.5,385.2,30.4,399l5.7,3.8l-1.2,6.4c-4.4,23.6,9.9,46.7,33.9,55l6.6,2.3L76,473
	c2.3,23.8,22.5,42.7,47.9,44.9l6.9,0.6l2.4,6.1c7.8,19.8,27.8,32.5,49.7,32.5c3,0,6-0.2,9.1-0.7l6.9-1.1l4,5.3
	c10.2,13.5,26.5,21,43.3,21c7.5,0,15-1.5,22.2-4.6l6.3-2.7l5.4,4.2c9.8,7.7,21.9,11.5,33.9,11.5s24.1-3.8,33.9-11.5l5.4-4.2l6.3,2.7
	c7.1,3.1,14.7,4.6,22.2,4.6c16.8,0,33.1-7.5,43.3-21l4-5.3l6.9,1.1c3,0.5,6.1,0.7,9,0.7c21.9,0,41.9-12.7,49.7-32.5l2.4-6.1l7-0.6
	c25.5-2.2,45.6-21.1,47.9-44.9l0.6-6.5l6.5-2.3c24-8.3,38.3-31.4,33.9-55l-1.2-6.4l5.7-3.8c20.9-13.8,28.3-39.6,17.5-61.3
	L612.3,331.8z M610,268.5c13.6,15.3,13.6,37.6,0,52.9l-1.8,2l-3.8-7.7c-6.5-13.2-6.5-28.4,0-41.6l3.8-7.7L610,268.5z M580,386.9
	l2.2,12.2l-10.8,7.1c-14.8,9.8-24.3,25.1-25.9,42l-1.2,12.3l-12.4,4.3c-17,5.9-30.4,18.4-36.6,34.3l-4.6,11.6l-13.1,1.1
	c-18.1,1.5-34.4,10.4-44.9,24.3l-7.6,10.1l-13-2.1c-3.5-0.6-7-0.8-10.5-0.8c-14.4,0-28.5,4.8-39.5,13.4l-10.1,7.9l-12-5.2
	c-8.2-3.5-16.9-5.3-25.9-5.3c-9,0-17.7,1.8-25.9,5.3l-12,5.2l-10.1-7.9c-11.1-8.7-25.1-13.4-39.6-13.4c-3.5,0-7.1,0.3-10.5,0.8
	l-13,2.1l-7.6-10.1c-10.5-13.9-26.8-22.7-44.9-24.3l-13.1-1.1l-4.6-11.6c-6.3-16-19.6-28.5-36.7-34.3l-12.4-4.3l-1.2-12.3
	c-1.6-16.9-11.1-32.2-25.9-42l-10.8-7.1l2.2-12.2c3.1-16.7-1.8-33.8-13.4-46.9l-8.5-9.5l5.5-11.2c7.6-15.4,7.6-33.1,0-48.5
	l-5.5-11.2l8.5-9.5C46.2,237,51,219.9,48,203.1l-2.2-12.2l10.8-7.1c14.8-9.8,24.3-25.1,25.9-42l1.2-12.3l12.4-4.3
	c17-5.9,30.4-18.4,36.7-34.3l4.6-11.6l13.1-1.1c18.1-1.5,34.4-10.4,44.9-24.3l7.6-10.1l13,2.1c3.5,0.6,7,0.8,10.5,0.8
	c14.4,0,28.5-4.8,39.6-13.4l10.1-7.9l12,5.2c8.2,3.5,16.9,5.3,25.9,5.3c9,0,17.7-1.8,25.9-5.3l12-5.2l10.1,7.9
	c11.1,8.7,25.1,13.4,39.5,13.4c3.5,0,7-0.3,10.5-0.8l13-2.1l7.6,10.1c10.5,13.9,26.8,22.7,44.9,24.3l13.1,1.1l4.6,11.6
	c6.3,15.9,19.6,28.5,36.6,34.3l12.4,4.3l1.2,12.3c1.6,16.9,11.1,32.2,25.9,42l10.8,7.1l-2.2,12.2c-3.1,16.7,1.8,33.8,13.4,46.9
	l8.5,9.5l-5.5,11.2c-7.6,15.4-7.6,33.1,0,48.5l5.5,11.2l-8.5,9.5C581.8,353,577,370.1,580,386.9z M592.5,197.7
	c17.4,11.5,23.6,33,14.6,51.1l-1.2,2.4l-5.8-6.5c-9.9-11.2-14.2-25.9-11.5-40.2l1.5-8.3L592.5,197.7z M556.2,133.5
	c20,6.9,31.9,26.2,28.3,45.8l-0.5,2.6l-7.4-4.9c-12.7-8.4-20.8-21.6-22.2-36l-0.8-8.4L556.2,133.5z M503.3,80.3
	c21.2,1.8,38,17.6,40,37.4l0.2,2.6l-8.5-2.9c-14.6-5-26.1-15.8-31.4-29.4l-3.1-7.9L503.3,80.3z M437.5,41.7c2.5-0.4,5-0.6,7.5-0.6
	c18.4,0,35,10.9,41.4,27.1l1,2.5l-9-0.8C463,68.6,448.9,61,440,49.1l-5.2-6.9L437.5,41.7z M363.3,20.4c5.9-2.5,12.1-3.8,18.5-3.8
	c14.3,0,27.8,6.6,36.1,17.5l1.6,2.1l-8.9,1.4c-3,0.5-6,0.7-9,0.7c-12.3,0-24.3-4-33.9-11.5l-6.9-5.4L363.3,20.4z M285.7,17.8
	c7.9-6.2,18-9.6,28.3-9.6c10.3,0,20.3,3.4,28.3,9.6l2.1,1.7l-8.2,3.5c-7,3-14.6,4.6-22.2,4.6s-15.2-1.5-22.2-4.6l-8.2-3.5
	L285.7,17.8z M210.1,34.1c8.3-11,21.8-17.5,36.1-17.5c6.4,0,12.6,1.3,18.5,3.8l2.5,1.1l-6.9,5.4c-9.6,7.5-21.6,11.5-33.9,11.5
	c-3,0-6-0.2-9-0.7l-8.9-1.4L210.1,34.1z M141.6,68.2c6.4-16.2,23-27.1,41.4-27.1c2.5,0,5.1,0.2,7.6,0.6l2.8,0.5l-5.2,6.9
	c-8.9,11.9-23,19.5-38.5,20.8l-9,0.8L141.6,68.2z M84.8,117.7c1.9-19.9,18.7-35.6,40-37.4l2.8-0.2l-3.1,7.9
	c-5.4,13.7-16.8,24.4-31.4,29.4l-8.5,2.9L84.8,117.7z M43.6,179.3c-3.6-19.7,8.2-38.9,28.3-45.8l2.6-0.9l-0.8,8.4
	c-1.4,14.5-9.5,27.7-22.2,36l-7.4,4.9L43.6,179.3z M20.8,248.8c-8.9-18.1-2.8-39.6,14.6-51.1l2.3-1.5l1.5,8.3
	c2.6,14.3-1.6,29-11.5,40.2l-5.8,6.5L20.8,248.8z M18,321.5c-13.6-15.3-13.6-37.6,0-52.9l1.8-2l3.8,7.7c6.5,13.2,6.5,28.4,0,41.6
	l-3.8,7.7L18,321.5z M35.5,392.3c-17.4-11.5-23.6-33-14.6-51.1l1.2-2.4l5.8,6.5c9.9,11.2,14.1,25.9,11.5,40.2l-1.5,8.3L35.5,392.3z
	 M71.8,456.5c-20-6.9-31.9-26.2-28.3-45.8l0.5-2.6l7.4,4.9c12.7,8.4,20.8,21.6,22.2,36l0.8,8.4L71.8,456.5z M124.7,509.7
	c-21.2-1.8-38-17.5-40-37.4l-0.2-2.6l8.5,2.9c14.6,5,26.1,15.8,31.4,29.4l3.1,7.9L124.7,509.7z M190.5,548.3c-2.5,0.4-5,0.6-7.6,0.6
	c-18.4,0-35-10.9-41.4-27.1l-1-2.5l9,0.8c15.5,1.3,29.5,8.9,38.5,20.8l5.2,6.9L190.5,548.3z M264.7,569.6
	c-5.9,2.5-12.1,3.8-18.5,3.8c-14.3,0-27.8-6.5-36.1-17.5l-1.6-2.1l8.9-1.4c3-0.5,6-0.7,9-0.7c12.3,0,24.3,4,33.9,11.5l6.9,5.4
	L264.7,569.6z M342.3,572.2c-7.9,6.2-18,9.6-28.3,9.6c-10.3,0-20.3-3.4-28.3-9.6l-2.1-1.7l8.2-3.5c7-3,14.6-4.6,22.2-4.6
	c7.6,0,15.2,1.5,22.2,4.6l8.2,3.5L342.3,572.2z M417.9,555.9c-8.3,11-21.8,17.5-36.1,17.5c-6.4,0-12.6-1.3-18.5-3.8l-2.5-1.1
	l6.9-5.4c9.6-7.5,21.6-11.5,33.9-11.5c3,0,6,0.2,9,0.7l8.9,1.4L417.9,555.9z M486.4,521.8c-6.4,16.2-23,27.1-41.4,27.1
	c-2.5,0-5-0.2-7.5-0.6l-2.8-0.5l5.2-6.9c9-11.9,23-19.5,38.5-20.8l9-0.8L486.4,521.8z M543.2,472.3c-1.9,19.9-18.7,35.6-40,37.4
	l-2.8,0.2l3.1-7.9c5.4-13.6,16.8-24.4,31.4-29.4l8.5-2.9L543.2,472.3z M584.4,410.7c3.6,19.7-8.2,38.9-28.3,45.8l-2.6,0.9l0.8-8.4
	c1.4-14.5,9.5-27.7,22.2-36l7.4-4.9L584.4,410.7z M592.5,392.3l-2.3,1.5l-1.5-8.3c-2.6-14.3,1.6-29,11.5-40.2l5.8-6.5l1.2,2.4
	C616.1,359.3,610,380.8,592.5,392.3z"/>
<rect x="94" y="151" class="st1" width="449" height="314"/>
<text transform="matrix(1 0 0 1 155.0044 298.6479)" class="st2 st3 st4">Berg’s</text>
<text transform="matrix(1 0 0 1 182.2244 478.6479)" class="st0 st5 st4">21st</text>
</svg>
