<?xml version="1.0" encoding="utf-8"?>
<!-- Generator: Adobe Illustrator 25.4.1, SVG Export Plug-In . SVG Version: 6.00 Build 0)  -->
<svg version="1.1" id="Layer_1" xmlns="http://www.w3.org/2000/svg" xmlns:xlink="http://www.w3.org/1999/xlink" x="0px" y="0px"
	 viewBox="0 0 1280 1024" style="enable-background:new 0 0 1280 1024;" xml:space="preserve">
<style type="text/css">
	.st0{fill:#231F20;}
	.st1{fill:none;}
	.st2{font-family:'Herculanum';}
	.st3{font-size:263.6583px;}
	.st4{font-size:220.8778px;}
</style>
<path id="Shape_4" class="st0" d="M742.06,442.21l2.44-6.7c8.95-24.51,8.95-60.12,0-84.64l-2.44-6.7l1.6-7.91
	c5.86-28.97,1.83-63.36-9.59-81.75l-3.12-5.02l0.65-8.59c2.38-31.44-5.42-62.28-18.53-73.3l-3.58-3.01l-0.35-8.68
	c-1.27-31.78-12.29-56.96-26.21-59.85l-3.8-0.79l-1.32-8.18c-4.24-26.34-15.2-43.29-27.15-43.29c-1.64,0-3.29,0.32-4.95,0.97
	l-3.76,1.48l-2.2-7.12c-5.57-18.04-14.5-28.01-23.67-28.01c-4.09,0-8.22,1.98-12.13,6.11l-3.46,3.66l-2.93-5.58
	C592.18,5.11,585.6,0,579.02,0c-6.58,0-13.16,5.11-18.53,15.32l-2.93,5.58l-3.46-3.66c-3.91-4.13-8.05-6.1-12.13-6.11
	c-9.17,0-18.1,9.97-23.67,28.01l-2.2,7.12l-3.76-1.48c-1.66-0.65-3.31-0.97-4.95-0.97c-11.95,0-22.91,16.95-27.15,43.29l-1.32,8.18
	l-3.8,0.79c-13.92,2.89-24.94,28.07-26.21,59.85l-0.35,8.68l-3.58,3.01c-13.12,11.02-20.91,41.85-18.53,73.3l0.65,8.59l-3.12,5.02
	c-11.42,18.39-15.46,52.79-9.59,81.75l1.6,7.91l-2.44,6.7c-8.95,24.51-8.95,60.12,0,84.64l2.44,6.7l-1.6,7.91
	c-5.86,28.97-1.83,63.36,9.59,81.75l3.12,5.02l-0.65,8.59c-2.38,31.44,5.42,62.28,18.53,73.3l3.58,3.01l0.35,8.68
	c1.27,31.78,12.29,56.96,26.21,59.85l3.8,0.79l1.32,8.18c4.24,26.34,15.2,43.29,27.15,43.29c1.64,0,3.29-0.32,4.95-0.97l3.76-1.48
	l2.2,7.12c5.57,18.04,14.5,28.01,23.67,28.01c4.09,0,8.22-1.98,12.13-6.11l3.46-3.66l2.93,5.58c5.37,10.21,11.95,15.32,18.53,15.32
	c6.58,0,13.16-5.11,18.53-15.32l2.93-5.58l3.46,3.66c3.91,4.13,8.05,6.11,12.13,6.11c9.17,0,18.1-9.97,23.67-28.01l2.2-7.12
	l3.76,1.48c1.66,0.65,3.31,0.97,4.95,0.97c11.95,0,22.91-16.95,27.15-43.29l1.32-8.18l3.8-0.79c13.92-2.89,24.94-28.07,26.21-59.85
	l0.35-8.68l3.58-3.01c13.12-11.02,20.91-41.85,18.53-73.3l-0.65-8.59l3.12-5.02c11.42-18.39,15.46-52.79,9.59-81.75L742.06,442.21z
	 M740.8,357.93c7.46,20.44,7.46,50.1,0,70.54l-0.98,2.68l-2.07-10.22c-3.56-17.59-3.56-37.87,0-55.47l2.07-10.22L740.8,357.93z
	 M724.45,515.67l1.23,16.24l-5.9,9.5c-8.11,13.05-13.27,33.48-14.17,56.03l-0.65,16.42l-6.77,5.69
	c-9.31,7.82-16.61,24.49-20.04,45.75l-2.49,15.47l-7.19,1.49c-9.88,2.05-18.82,13.84-24.54,32.35l-4.16,13.47l-7.11-2.81
	c-1.89-0.75-3.83-1.13-5.75-1.13c-7.88,0-15.56,6.35-21.62,17.87l-5.55,10.55l-6.55-6.91c-4.47-4.72-9.24-7.11-14.17-7.11
	s-9.69,2.39-14.17,7.11l-6.55,6.92l-5.55-10.55c-6.06-11.53-13.73-17.87-21.62-17.87c-1.92,0-3.86,0.38-5.75,1.13l-7.11,2.81
	l-4.16-13.47c-5.72-18.51-14.66-30.3-24.54-32.35l-7.19-1.49l-2.49-15.47c-3.42-21.26-10.73-37.93-20.04-45.75l-6.77-5.69
	l-0.65-16.42c-0.9-22.56-6.06-42.98-14.17-56.03l-5.9-9.5l1.23-16.24c1.69-22.32-0.98-45.1-7.33-62.5l-4.62-12.66l3.03-14.96
	c4.16-20.56,4.16-44.14,0-64.7l-3.03-14.96l4.62-12.66c6.35-17.4,9.02-40.18,7.33-62.5l-1.23-16.24l5.9-9.5
	c8.11-13.05,13.27-33.48,14.17-56.03l0.65-16.41l6.77-5.69c9.31-7.82,16.61-24.49,20.04-45.75l2.49-15.47l7.19-1.49
	c9.88-2.05,18.82-13.84,24.54-32.35l4.16-13.47l7.11,2.81c1.89,0.75,3.83,1.13,5.75,1.13c7.88,0,15.56-6.35,21.62-17.87l5.55-10.55
	l6.55,6.92c4.47,4.72,9.24,7.11,14.17,7.11c4.93,0,9.69-2.39,14.17-7.11l6.55-6.92l5.55,10.55c6.06,11.53,13.73,17.87,21.62,17.87
	c1.92,0,3.86-0.38,5.75-1.13l7.11-2.81l4.16,13.47c5.72,18.51,14.66,30.3,24.54,32.35l7.19,1.49l2.49,15.47
	c3.42,21.26,10.73,37.93,20.04,45.75l6.77,5.69l0.65,16.42c0.9,22.56,6.06,42.98,14.17,56.03l5.9,9.5l-1.23,16.24
	c-1.69,22.32,0.98,45.1,7.33,62.5l4.62,12.66l-3.03,14.96c-4.16,20.56-4.16,44.14,0,64.7l3.03,14.96l-4.62,12.66
	C725.43,470.57,722.76,493.35,724.45,515.67z M731.29,263.52c9.52,15.33,12.88,43.99,8,68.14l-0.64,3.17l-3.16-8.65
	c-5.43-14.89-7.73-34.48-6.29-53.58l0.84-11.09L731.29,263.52z M711.4,177.94c10.93,9.18,17.43,34.87,15.45,61.09l-0.26,3.44
	l-4.03-6.49c-6.94-11.17-11.38-28.73-12.15-48.03l-0.45-11.21L711.4,177.94z M682.49,107.04c11.6,2.41,20.79,23.39,21.84,49.88
	l0.14,3.48l-4.63-3.89c-7.97-6.69-14.25-21.03-17.18-39.22l-1.7-10.57L682.49,107.04z M646.53,55.64c1.36-0.54,2.75-0.81,4.13-0.81
	c10.06,0,19.15,14.5,22.63,36.08l0.53,3.28l-4.91-1.02c-8.45-1.75-16.14-11.89-21.04-27.73l-2.84-9.2L646.53,55.64z M605.97,27.24
	c3.2-3.38,6.6-5.09,10.11-5.09c7.84,0,15.21,8.73,19.73,23.35l0.88,2.85l-4.86,1.92c-1.64,0.65-3.29,0.97-4.93,0.97
	c-6.72,0-13.29-5.35-18.53-15.32l-3.79-7.21L605.97,27.24z M563.57,23.78c4.33-8.23,9.81-12.77,15.45-12.77
	c5.63,0,11.12,4.53,15.45,12.77l1.17,2.23l-4.48,4.72c-3.85,4.07-8,6.1-12.14,6.1c-4.15,0-8.29-2.03-12.15-6.1l-4.48-4.72
	L563.57,23.78z M522.22,45.49c4.52-14.62,11.89-23.35,19.73-23.35c3.51,0,6.91,1.71,10.11,5.09l1.39,1.46l-3.79,7.21
	c-5.24,9.97-11.81,15.32-18.53,15.32c-1.64,0-3.29-0.32-4.93-0.97l-4.86-1.92L522.22,45.49z M484.75,90.91
	c3.48-21.58,12.57-36.08,22.63-36.08c1.37,0,2.76,0.27,4.13,0.81l1.51,0.59l-2.84,9.2c-4.89,15.84-12.58,25.98-21.04,27.73
	l-4.91,1.02L484.75,90.91z M453.7,156.92c1.05-26.49,10.24-47.47,21.84-49.88l1.52-0.32l-1.7,10.57
	c-2.93,18.19-9.21,32.53-17.18,39.22l-4.63,3.89L453.7,156.92z M431.19,239.03c-1.98-26.21,4.51-51.91,15.45-61.09l1.43-1.21
	l-0.45,11.21c-0.77,19.3-5.21,36.86-12.14,48.03l-4.03,6.49L431.19,239.03z M418.75,331.65c-4.89-24.15-1.53-52.8,8-68.14l1.25-2.01
	l0.84,11.09c1.45,19.1-0.85,38.69-6.29,53.58l-3.16,8.65L418.75,331.65z M417.24,428.47c-7.46-20.44-7.46-50.1,0-70.54l0.98-2.68
	l2.07,10.22c3.56,17.59,3.56,37.87,0,55.47l-2.07,10.22L417.24,428.47z M426.75,522.88c-9.52-15.33-12.88-43.99-8-68.14l0.64-3.17
	l3.16,8.65c5.43,14.89,7.73,34.48,6.29,53.58L428,524.89L426.75,522.88z M446.63,608.45c-10.93-9.18-17.43-34.87-15.45-61.09
	l0.26-3.44l4.03,6.49c6.94,11.17,11.38,28.73,12.15,48.03l0.45,11.21L446.63,608.45z M475.54,679.35
	c-11.6-2.41-20.79-23.39-21.84-49.88l-0.14-3.48l4.63,3.89c7.97,6.69,14.25,21.03,17.18,39.22l1.7,10.57L475.54,679.35z
	 M511.5,730.76c-1.36,0.54-2.75,0.81-4.13,0.81c-10.06,0-19.15-14.5-22.63-36.08l-0.53-3.28l4.91,1.02
	c8.45,1.75,16.14,11.89,21.04,27.73l2.84,9.2L511.5,730.76z M552.06,759.15c-3.2,3.38-6.6,5.09-10.11,5.09
	c-7.84,0-15.21-8.73-19.73-23.35l-0.88-2.85l4.86-1.92c1.64-0.65,3.29-0.97,4.93-0.97c6.72,0,13.29,5.35,18.53,15.32l3.79,7.21
	L552.06,759.15z M594.46,762.61c-4.33,8.23-9.81,12.77-15.45,12.77c-5.63,0-11.12-4.53-15.45-12.77l-1.17-2.23l4.48-4.72
	c3.85-4.07,8-6.1,12.15-6.1c4.15,0,8.29,2.03,12.14,6.1l4.48,4.72L594.46,762.61z M635.81,740.9
	c-4.52,14.62-11.89,23.35-19.73,23.35c-3.51,0-6.91-1.71-10.11-5.09l-1.39-1.46l3.79-7.21c5.24-9.97,11.81-15.32,18.53-15.32
	c1.64,0,3.29,0.32,4.93,0.97l4.86,1.92L635.81,740.9z M673.28,695.49c-3.48,21.58-12.57,36.08-22.63,36.08
	c-1.37,0-2.76-0.27-4.13-0.81l-1.51-0.59l2.84-9.2c4.89-15.84,12.58-25.98,21.04-27.73l4.91-1.02L673.28,695.49z M704.33,629.47
	c-1.05,26.49-10.24,47.47-21.84,49.88l-1.52,0.32l1.7-10.57c2.93-18.19,9.21-32.53,17.18-39.22l4.63-3.89L704.33,629.47z
	 M726.84,547.36c1.98,26.21-4.51,51.91-15.45,61.09l-1.43,1.21l0.45-11.21c0.77-19.3,5.21-36.86,12.15-48.03l4.03-6.49
	L726.84,547.36z M731.29,522.88l-1.25,2.01l-0.84-11.09c-1.45-19.1,0.85-38.69,6.29-53.58l3.16-8.65l0.64,3.17
	C744.17,478.89,740.81,507.54,731.29,522.88z"/>
<rect x="440.61" y="276.7" class="st1" width="304.03" height="463.04"/>
<text transform="matrix(0.4379 0 0 1 440.6074 435.4199)" class="st2 st3">Berg</text>
<rect x="469.02" y="467.06" class="st1" width="304.03" height="463.04"/>
<text transform="matrix(0.4379 0 0 1 469.0234 625.7832)" class="st2 st3">2021</text>
<text transform="matrix(0.5228 0 0 1 -4.882812e-04 975.7324)" class="st2 st4">Branded CollectionS </text>
</svg>
