<?xml version="1.0" encoding="utf-8"?>
<!-- Generator: Adobe Illustrator 25.4.1, SVG Export Plug-In . SVG Version: 6.00 Build 0)  -->
<svg version="1.1" id="Layer_1" xmlns="http://www.w3.org/2000/svg" xmlns:xlink="http://www.w3.org/1999/xlink" x="0px" y="0px"
	 viewBox="0 0 631.03 592" style="enable-background:new 0 0 631.03 592;" xml:space="preserve">
<style type="text/css">
	.st0{fill:#231F20;}
	.st1{fill:none;}
	.st2{font-family:'Impact';}
	.st3{font-size:150px;}
	.st4{font-family:'HoeflerText-Regular';}
</style>
<path id="Shape_4" class="st0" d="M612.26,331.77l4.47-5.02c16.37-18.39,16.37-45.11,0-63.5l-4.47-5.02l2.93-5.94
	c10.73-21.73,3.34-47.54-17.55-61.34l-5.71-3.77l1.19-6.44c4.35-23.59-9.91-46.73-33.9-54.99l-6.55-2.26l-0.63-6.51
	c-2.31-23.84-22.49-42.73-47.94-44.9l-6.95-0.59l-2.41-6.14c-7.76-19.76-27.81-32.48-49.67-32.48c-2.99,0-6.02,0.24-9.05,0.73
	l-6.88,1.11l-4.02-5.34c-10.19-13.53-26.52-21.02-43.3-21.02c-7.48,0-15.04,1.48-22.19,4.58l-6.34,2.74l-5.36-4.19
	C338.08,3.83,326.04,0,314,0s-24.08,3.83-33.9,11.49l-5.36,4.19l-6.34-2.74c-7.15-3.1-14.72-4.58-22.19-4.58
	c-16.78,0-33.11,7.48-43.3,21.02l-4.02,5.34L192,33.6c-3.03-0.49-6.06-0.73-9.05-0.73c-21.86,0-41.91,12.71-49.67,32.48l-2.41,6.14
	l-6.95,0.59c-25.46,2.17-45.63,21.06-47.94,44.9l-0.63,6.51l-6.55,2.26c-23.99,8.26-38.26,31.4-33.9,54.99l1.19,6.44l-5.71,3.77
	c-20.89,13.8-28.27,39.6-17.55,61.34l2.93,5.94l-4.47,5.02c-16.37,18.39-16.37,45.11,0,63.5l4.47,5.02l-2.93,5.94
	c-10.73,21.73-3.34,47.54,17.55,61.34l5.71,3.77l-1.19,6.44c-4.35,23.59,9.91,46.73,33.9,54.99l6.55,2.26l0.63,6.51
	c2.31,23.84,22.49,42.73,47.94,44.9l6.95,0.59l2.41,6.14c7.76,19.76,27.81,32.48,49.67,32.48c2.99,0,6.02-0.24,9.05-0.73l6.88-1.11
	l4.02,5.34c10.19,13.53,26.52,21.01,43.3,21.01c7.48,0,15.04-1.48,22.19-4.58l6.34-2.74l5.36,4.19c9.82,7.66,21.86,11.49,33.9,11.49
	s24.08-3.83,33.9-11.49l5.36-4.19l6.34,2.74c7.15,3.1,14.72,4.58,22.19,4.58c16.78,0,33.11-7.48,43.3-21.02l4.02-5.34l6.88,1.11
	c3.03,0.49,6.06,0.73,9.05,0.73c21.86,0,41.91-12.71,49.67-32.48l2.41-6.14l6.95-0.59c25.46-2.17,45.63-21.06,47.94-44.9l0.63-6.51
	l6.55-2.26c23.99-8.26,38.26-31.4,33.9-54.99l-1.19-6.44l5.71-3.77c20.89-13.8,28.27-39.6,17.55-61.34L612.26,331.77z
	 M609.95,268.54c13.64,15.33,13.64,37.59,0,52.92l-1.79,2.01l-3.78-7.67c-6.51-13.2-6.51-28.41,0-41.61l3.78-7.67L609.95,268.54z
	 M580.04,386.89l2.25,12.19l-10.79,7.13c-14.83,9.79-24.27,25.12-25.92,42.04l-1.2,12.32l-12.39,4.27
	c-17.03,5.87-30.39,18.38-36.65,34.33l-4.56,11.61l-13.15,1.12c-18.07,1.54-34.43,10.39-44.89,24.27l-7.61,10.11l-13.01-2.11
	c-3.47-0.56-7.01-0.85-10.52-0.85c-14.42,0-28.47,4.76-39.55,13.41l-10.14,7.92l-11.99-5.19c-8.18-3.54-16.9-5.34-25.92-5.34
	c-9.01,0-17.73,1.8-25.92,5.34l-11.99,5.19l-10.14-7.92c-11.08-8.65-25.13-13.41-39.55-13.41c-3.51,0-7.05,0.28-10.52,0.85
	l-13.01,2.11l-7.61-10.11c-10.46-13.89-26.82-22.73-44.89-24.27l-13.15-1.12l-4.56-11.61c-6.26-15.95-19.62-28.46-36.65-34.33
	l-12.39-4.27l-1.2-12.32c-1.64-16.92-11.09-32.25-25.92-42.04l-10.79-7.13l2.25-12.19c3.09-16.74-1.8-33.84-13.42-46.89l-8.45-9.5
	l5.54-11.23c7.61-15.43,7.61-33.12,0-48.54l-5.54-11.23l8.45-9.5c11.62-13.05,16.51-30.15,13.42-46.89l-2.25-12.19l10.79-7.13
	c14.83-9.79,24.27-25.12,25.92-42.04l1.2-12.32l12.39-4.27c17.03-5.87,30.39-18.38,36.65-34.33l4.56-11.61l13.15-1.12
	c18.07-1.54,34.43-10.39,44.89-24.27l7.61-10.11l13.01,2.11c3.47,0.56,7.01,0.85,10.52,0.85c14.42,0,28.47-4.76,39.55-13.41
	l10.14-7.92l11.99,5.19c8.18,3.54,16.9,5.34,25.92,5.34c9.01,0,17.73-1.8,25.92-5.34l11.99-5.19l10.14,7.92
	c11.08,8.65,25.13,13.41,39.55,13.41c3.51,0,7.05-0.28,10.52-0.85l13.01-2.11l7.61,10.11c10.46,13.89,26.82,22.73,44.89,24.27
	l13.15,1.12l4.56,11.61c6.26,15.95,19.62,28.46,36.65,34.33l12.39,4.27l1.2,12.32c1.64,16.92,11.09,32.25,25.92,42.04l10.79,7.13
	l-2.25,12.19c-3.09,16.74,1.8,33.84,13.42,46.89l8.45,9.5l-5.54,11.23c-7.61,15.43-7.61,33.12,0,48.54l5.54,11.23l-8.45,9.5
	C581.84,353.05,576.95,370.14,580.04,386.89z M592.55,197.71c17.42,11.5,23.57,33,14.63,51.12l-1.17,2.38l-5.77-6.49
	c-9.94-11.17-14.15-25.87-11.5-40.2l1.54-8.32L592.55,197.71z M556.17,133.5c20,6.89,31.88,26.17,28.26,45.83l-0.48,2.58l-7.37-4.87
	c-12.69-8.38-20.81-21.56-22.22-36.04l-0.82-8.41L556.17,133.5z M503.29,80.31c21.22,1.81,38.03,17.55,39.96,37.42l0.25,2.61
	l-8.46-2.92c-14.57-5.02-26.06-15.78-31.42-29.43l-3.11-7.93L503.29,80.31z M437.51,41.74c2.49-0.4,5.03-0.61,7.55-0.61
	c18.4,0,35.03,10.88,41.39,27.07l0.97,2.46l-8.98-0.76c-15.46-1.32-29.53-8.92-38.48-20.81l-5.2-6.9L437.51,41.74z M363.3,20.44
	c5.85-2.53,12.08-3.82,18.49-3.82c14.34,0,27.83,6.55,36.09,17.52l1.61,2.14l-8.89,1.44c-3,0.49-6.02,0.72-9.02,0.72
	c-12.29,0-24.31-4.01-33.9-11.5l-6.93-5.41L363.3,20.44z M285.74,17.84c7.92-6.18,17.95-9.58,28.26-9.58
	c10.3,0,20.34,3.4,28.26,9.58l2.15,1.68l-8.19,3.54c-7.05,3.05-14.63,4.58-22.22,4.58c-7.59,0-15.17-1.52-22.22-4.58l-8.19-3.54
	L285.74,17.84z M210.11,34.13c8.26-10.97,21.75-17.52,36.09-17.52c6.42,0,12.64,1.29,18.49,3.82l2.54,1.1l-6.93,5.41
	c-9.59,7.48-21.61,11.5-33.9,11.5c-3,0-6.02-0.24-9.02-0.72l-8.89-1.44L210.11,34.13z M141.56,68.2
	c6.36-16.19,22.99-27.07,41.39-27.07c2.52,0,5.05,0.2,7.55,0.61l2.76,0.45l-5.2,6.9c-8.95,11.88-23.02,19.49-38.48,20.81l-8.98,0.76
	L141.56,68.2z M84.75,117.73c1.93-19.88,18.73-35.62,39.96-37.42l2.79-0.24L124.38,88c-5.36,13.65-16.85,24.41-31.42,29.43
	l-8.46,2.92L84.75,117.73z M43.57,179.34c-3.63-19.67,8.25-38.94,28.26-45.83l2.62-0.9l-0.82,8.41
	c-1.41,14.48-9.53,27.66-22.22,36.04l-7.37,4.87L43.57,179.34z M20.82,248.83c-8.94-18.12-2.79-39.62,14.63-51.12l2.29-1.51
	l1.54,8.32c2.64,14.33-1.56,29.02-11.5,40.2l-5.77,6.49L20.82,248.83z M18.05,321.46c-13.64-15.33-13.64-37.59,0-52.92l1.79-2.01
	l3.78,7.67c6.51,13.2,6.51,28.41,0,41.61l-3.78,7.67L18.05,321.46z M35.45,392.29c-17.42-11.5-23.57-33-14.63-51.12l1.17-2.38
	l5.77,6.49c9.94,11.17,14.14,25.87,11.5,40.2l-1.54,8.32L35.45,392.29z M71.83,456.5c-20-6.89-31.88-26.17-28.26-45.83l0.48-2.58
	l7.37,4.87c12.69,8.38,20.81,21.56,22.22,36.04l0.82,8.41L71.83,456.5z M124.71,509.69c-21.22-1.81-38.03-17.55-39.96-37.42
	l-0.25-2.61l8.46,2.92c14.57,5.02,26.06,15.78,31.42,29.43l3.11,7.93L124.71,509.69z M190.49,548.26c-2.49,0.4-5.03,0.61-7.55,0.61
	c-18.4,0-35.03-10.88-41.39-27.07l-0.97-2.46l8.98,0.76c15.46,1.32,29.53,8.92,38.48,20.81l5.2,6.9L190.49,548.26z M264.7,569.56
	c-5.85,2.53-12.08,3.82-18.49,3.82c-14.34,0-27.83-6.55-36.09-17.52l-1.61-2.14l8.89-1.44c3-0.49,6.02-0.72,9.02-0.72
	c12.29,0,24.31,4.01,33.9,11.5l6.93,5.41L264.7,569.56z M342.26,572.16c-7.92,6.18-17.95,9.58-28.26,9.58
	c-10.3,0-20.34-3.4-28.26-9.58l-2.15-1.68l8.19-3.54c7.05-3.05,14.63-4.58,22.22-4.58c7.58,0,15.17,1.53,22.22,4.58l8.19,3.54
	L342.26,572.16z M417.89,555.87c-8.26,10.97-21.75,17.52-36.09,17.52c-6.42,0-12.64-1.28-18.49-3.82l-2.54-1.1l6.93-5.41
	c9.59-7.48,21.61-11.5,33.9-11.5c3,0,6.02,0.24,9.02,0.72l8.89,1.44L417.89,555.87z M486.44,521.8
	c-6.36,16.19-22.99,27.07-41.39,27.07c-2.51,0-5.05-0.2-7.55-0.61l-2.76-0.45l5.2-6.9c8.95-11.88,23.02-19.49,38.48-20.81l8.98-0.76
	L486.44,521.8z M543.25,472.27c-1.93,19.88-18.73,35.62-39.96,37.42l-2.79,0.24l3.11-7.93c5.36-13.65,16.85-24.41,31.42-29.43
	l8.46-2.92L543.25,472.27z M584.43,410.66c3.63,19.67-8.25,38.94-28.26,45.83l-2.62,0.9l0.82-8.41
	c1.41-14.48,9.53-27.66,22.22-36.04l7.37-4.87L584.43,410.66z M592.55,392.29l-2.29,1.51l-1.54-8.32
	c-2.64-14.33,1.56-29.02,11.5-40.2l5.77-6.49l1.17,2.38C616.12,359.29,609.97,380.79,592.55,392.29z"/>
<rect x="94" y="151" class="st1" width="449" height="314"/>
<text transform="matrix(1 0 0 1 173.0044 269.6479)"><tspan x="0" y="0" class="st2 st3">Berg</tspan><tspan x="27.22" y="180" class="st4 st3">21st</tspan></text>
</svg>
